<svg xmlns="http://www.w3.org/2000/svg" xmlns:xlink="http://www.w3.org/1999/xlink" width="200" zoomAndPan="magnify" viewBox="0 0 150 149.999998" height="200" preserveAspectRatio="xMidYMid meet" version="1.0"><path fill="#002782" d="M 51.867188 0 L 151.0625 0 C 151.0625 1.699219 150.976562 3.394531 150.8125 5.082031 C 150.644531 6.773438 150.394531 8.453125 150.066406 10.117188 C 149.734375 11.785156 149.320312 13.429688 148.828125 15.054688 C 148.335938 16.679688 147.765625 18.277344 147.113281 19.847656 C 146.464844 21.417969 145.738281 22.953125 144.9375 24.449219 C 144.136719 25.949219 143.265625 27.402344 142.324219 28.816406 C 141.378906 30.226562 140.367188 31.589844 139.289062 32.902344 C 138.214844 34.214844 137.074219 35.472656 135.875 36.675781 C 134.671875 37.875 133.414062 39.015625 132.101562 40.09375 C 130.789062 41.171875 129.425781 42.179688 128.015625 43.125 C 126.601562 44.070312 125.148438 44.941406 123.652344 45.742188 C 122.152344 46.542969 120.621094 47.269531 119.050781 47.917969 C 117.480469 48.566406 115.882812 49.140625 114.257812 49.632812 C 112.632812 50.125 110.988281 50.539062 109.324219 50.871094 C 107.65625 51.199219 105.980469 51.449219 104.289062 51.617188 C 102.597656 51.78125 100.90625 51.867188 99.207031 51.867188 L 0.0117188 51.867188 C 0.0117188 50.167969 0.09375 48.472656 0.261719 46.78125 C 0.425781 45.09375 0.675781 43.414062 1.007812 41.746094 C 1.339844 40.082031 1.75 38.4375 2.242188 36.808594 C 2.734375 35.183594 3.308594 33.585938 3.957031 32.019531 C 4.605469 30.449219 5.332031 28.914062 6.132812 27.417969 C 6.933594 25.917969 7.804688 24.464844 8.75 23.050781 C 9.691406 21.636719 10.703125 20.277344 11.78125 18.960938 C 12.859375 17.648438 13.996094 16.390625 15.199219 15.191406 C 16.398438 13.988281 17.65625 12.851562 18.96875 11.773438 C 20.28125 10.695312 21.644531 9.683594 23.054688 8.742188 C 24.46875 7.796875 25.921875 6.925781 27.421875 6.125 C 28.917969 5.324219 30.453125 4.597656 32.019531 3.949219 C 33.589844 3.296875 35.1875 2.726562 36.8125 2.234375 C 38.4375 1.742188 40.082031 1.328125 41.75 0.996094 C 43.414062 0.664062 45.09375 0.417969 46.78125 0.25 C 48.472656 0.0820312 50.167969 0 51.867188 0 Z M 51.867188 0 " fill-opacity="1" fill-rule="nonzero"/><path fill="#2f71ff" d="M 0.0117188 51.867188 L 99.207031 51.867188 C 99.207031 53.566406 99.121094 55.257812 98.957031 56.949219 C 98.789062 58.640625 98.539062 60.320312 98.210938 61.984375 C 97.878906 63.652344 97.464844 65.296875 96.972656 66.921875 C 96.480469 68.546875 95.910156 70.144531 95.257812 71.714844 C 94.609375 73.285156 93.882812 74.816406 93.082031 76.316406 C 92.28125 77.8125 91.410156 79.269531 90.464844 80.683594 C 89.523438 82.09375 88.511719 83.457031 87.433594 84.769531 C 86.359375 86.082031 85.21875 87.339844 84.019531 88.542969 C 82.816406 89.742188 81.558594 90.882812 80.246094 91.960938 C 78.933594 93.039062 77.570312 94.046875 76.160156 94.992188 C 74.746094 95.933594 73.292969 96.808594 71.796875 97.609375 C 70.296875 98.410156 68.765625 99.132812 67.195312 99.785156 C 65.625 100.433594 64.027344 101.007812 62.402344 101.5 C 60.777344 101.992188 59.132812 102.40625 57.46875 102.734375 C 55.800781 103.066406 54.125 103.316406 52.433594 103.484375 C 50.742188 103.648438 49.050781 103.734375 47.351562 103.734375 L 0.0117188 103.734375 Z M 0.0117188 51.867188 " fill-opacity="1" fill-rule="nonzero"/><path fill="#3fe2f8" d="M 0.367188 103.734375 L 38.5625 103.734375 L 38.5625 117.839844 C 38.5625 118.640625 38.523438 119.441406 38.445312 120.238281 C 38.367188 121.035156 38.25 121.824219 38.09375 122.609375 C 37.9375 123.398438 37.742188 124.171875 37.511719 124.9375 C 37.277344 125.707031 37.007812 126.457031 36.703125 127.199219 C 36.394531 127.9375 36.054688 128.660156 35.675781 129.367188 C 35.300781 130.074219 34.886719 130.761719 34.445312 131.425781 C 34 132.09375 33.523438 132.734375 33.015625 133.355469 C 32.507812 133.972656 31.96875 134.566406 31.402344 135.132812 C 30.835938 135.699219 30.242188 136.234375 29.625 136.746094 C 29.007812 137.253906 28.363281 137.730469 27.699219 138.175781 C 27.03125 138.617188 26.347656 139.03125 25.640625 139.40625 C 24.933594 139.785156 24.210938 140.128906 23.46875 140.433594 C 22.730469 140.742188 21.976562 141.007812 21.210938 141.242188 C 20.445312 141.476562 19.667969 141.667969 18.882812 141.824219 C 18.097656 141.980469 17.308594 142.097656 16.511719 142.175781 C 15.714844 142.257812 14.914062 142.296875 14.113281 142.296875 L 0.367188 142.296875 C 0.269531 142.296875 0.183594 142.261719 0.113281 142.191406 C 0.046875 142.121094 0.0117188 142.035156 0.0117188 141.9375 L 0.0117188 104.089844 C 0.0117188 103.992188 0.046875 103.90625 0.113281 103.839844 C 0.183594 103.769531 0.269531 103.734375 0.367188 103.734375 Z M 0.367188 103.734375 " fill-opacity="1" fill-rule="nonzero"/></svg>